# xmcd
#
# Track frame offsets:
#	150
#	15993
#	27113
#	41028
#	53865
#	68615
#	82071
#	94762
#	109745
#	121968
#	136812
#	147801
#
# Disc length: 2141 seconds
#
# Revision: 1
# Processed by: cddbd v1.5.1PL0 Copyright (c) Steve Scherf et al.
# Submitted via: audiograbber 1.81.02
#
DISCID=97085b0c
DTITLE=TIBAGY and MILTINHO - QUANDO SE AMA NA VIDA
DYEAR=1972
DGENRE=Sertanejo
TTITLE0=QUATRO CAMINHOS
TTITLE1=FIZERAM FEITIÇO NO MEU CASAMENTO
TTITLE2=POBRE DO POBRE
TTITLE3=NOITES E LÁGRIMAS
TTITLE4=FAZ UM ANO
TTITLE5=QUANDO SE AMA NA VIDA
TTITLE6=AONDE EU ESTIVER ESTAREI PENSANDO NELA
TTITLE7=MEU ÚLTIMO AMOR
TTITLE8=UMA VIDA COR DE ROSA QUE ACABOU
TTITLE9=O DESTINO FERE E AS VEZES CONFORTA
TTITLE10=UM DIA VOCÊ VAI SE ARREPENDER
TTITLE11=TENTAÇÃO
EXTD=
EXTT0=
EXTT1=
EXTT2=
EXTT3=
EXTT4=
EXTT5=
EXTT6=
EXTT7=
EXTT8=
EXTT9=
EXTT10=
EXTT11=
PLAYORDER=
